<svg xmlns="http://www.w3.org/2000/svg" xmlns:xlink="http://www.w3.org/1999/xlink" xmlns:serif="http://www.serif.com/" version="1.1" xml:space="preserve" style="fill-rule:evenodd;clip-rule:evenodd;stroke-linejoin:round;stroke-miterlimit:2;" viewBox="0 0 512 512"><ellipse cx="256" cy="256" rx="256" ry="256" style="fill:url(#_Linear1);"/><g transform="matrix(0.91097,0,0,0.91097,22.7918,22.7918)"><path d="M470.488,319.562L162.915,319.562C160.337,299.411 158.952,278.077 158.952,256C158.952,133.89 201.303,33.802 253.824,31.626C254.435,31.621 255.047,31.619 255.659,31.619C379.331,31.619 479.736,132.024 479.736,255.696C479.736,277.882 476.505,299.319 470.488,319.562Z" style="fill:url(#_Linear2);"/></g><g transform="matrix(0.91097,0,0,0.91097,22.7918,22.7918)"><path d="M255.297,511.999C114.329,511.619 0,397.056 0,256C0,114.944 114.329,0.381 255.297,0.001C255.39,0 255.483,0 255.577,0C255.718,-0 255.859,0 256,0C397.29,0 512,114.71 512,256C512,397.29 397.29,512 256,512C255.859,512 255.718,512 255.577,512C255.483,512 255.39,512 255.297,511.999ZM326.945,468.177C384.299,448.919 431.323,407.071 457.422,353.227L373.621,353.227C364.001,400.148 347.632,440.091 326.945,468.177ZM470.488,319.562C476.505,299.319 479.736,277.882 479.736,255.696C479.736,132.024 379.331,31.619 255.659,31.619C255.047,31.619 254.435,31.621 253.824,31.626C201.303,33.802 158.952,133.89 158.952,256C158.952,278.077 160.337,299.411 162.915,319.562L470.488,319.562ZM231.202,94.022C231.202,86.138 237.571,79.768 245.455,79.768C347.811,79.768 430.747,162.704 430.747,265.06C430.747,272.944 424.377,279.313 416.494,279.313C408.61,279.313 402.24,272.944 402.24,265.06C402.24,178.472 332.043,108.275 245.455,108.275C237.571,108.275 231.202,101.905 231.202,94.022ZM245.455,136.781C316.32,136.781 373.734,194.195 373.734,265.06C373.734,272.944 367.364,279.313 359.481,279.313C351.597,279.313 345.227,272.944 345.227,265.06C345.227,209.963 300.553,165.288 245.455,165.288C237.571,165.288 231.202,158.918 231.202,151.035C231.202,143.151 237.571,136.781 245.455,136.781ZM231.202,250.807C231.202,235.169 244.07,222.301 259.708,222.301C275.346,222.301 288.215,235.169 288.215,250.807C288.215,266.445 275.346,279.313 259.708,279.313C244.07,279.313 231.202,266.445 231.202,250.807ZM168.545,353.227C184.182,428.049 217.294,479.705 255.577,479.705C293.859,479.705 326.971,428.049 342.608,353.227L168.545,353.227ZM184.753,43.088C126.823,62.423 79.391,104.792 53.348,159.303L137.424,159.303C147.112,111.742 163.73,71.315 184.753,43.088ZM53.896,353.227C79.962,407.002 126.899,448.812 184.154,468.103C163.492,440.021 147.143,400.107 137.532,353.227L53.896,353.227ZM40.495,192.968C34.693,212.876 31.582,233.925 31.582,255.696C31.582,277.882 34.813,299.319 40.83,319.562L131.965,319.562C129.373,299.235 127.995,277.938 127.995,256C127.995,234.253 129.349,213.135 131.898,192.968L40.495,192.968Z" style="fill:#fff;"/></g><defs><linearGradient id="_Linear1" x1="0" y1="0" x2="1" y2="0" gradientUnits="userSpaceOnUse" gradientTransform="matrix(196.206,193.019,-193.019,196.206,229.936,84.8098)"><stop offset="0" style="stop-color:#259faf;stop-opacity:1"/><stop offset="1" style="stop-color:#066471;stop-opacity:1"/></linearGradient><linearGradient id="_Linear2" x1="0" y1="0" x2="1" y2="0" gradientUnits="userSpaceOnUse" gradientTransform="matrix(199.545,199.545,-179.116,179.116,231.202,79.7684)"><stop offset="0" style="stop-color:#d5773c;stop-opacity:1"/><stop offset="0.5" style="stop-color:#eea44e;stop-opacity:1"/><stop offset="1" style="stop-color:#d5773c;stop-opacity:1"/></linearGradient></defs></svg>